<?xml version="1.0" encoding="UTF-8" standalone="no"?>
<!-- Generator: Adobe Illustrator 9.0, SVG Export Plug-In  -->

<svg
   xmlns:dc="http://purl.org/dc/elements/1.1/"
   xmlns:cc="http://creativecommons.org/ns#"
   xmlns:rdf="http://www.w3.org/1999/02/22-rdf-syntax-ns#"
   xmlns:svg="http://www.w3.org/2000/svg"
   xmlns="http://www.w3.org/2000/svg"
   xmlns:sodipodi="http://sodipodi.sourceforge.net/DTD/sodipodi-0.dtd"
   xmlns:inkscape="http://www.inkscape.org/namespaces/inkscape"
   width="541.41699pt"
   height="541.41602pt"
   viewBox="0 0 541.417 541.416"
   xml:space="preserve"
   id="svg2242"
   sodipodi:version="0.32"
   inkscape:version="0.92.3 (2405546, 2018-03-11)"
   sodipodi:docname="bottom-plate.svg"
   inkscape:output_extension="org.inkscape.output.svg.inkscape"
   version="1.1"><metadata
   id="metadata2286"><rdf:RDF><cc:Work
       rdf:about=""><dc:format>image/svg+xml</dc:format><dc:type
         rdf:resource="http://purl.org/dc/dcmitype/StillImage" /><dc:title></dc:title></cc:Work></rdf:RDF></metadata><defs
   id="defs2284"><inkscape:perspective
   sodipodi:type="inkscape:persp3d"
   inkscape:vp_x="0 : 338.38501 : 1"
   inkscape:vp_y="0 : 1000 : 0"
   inkscape:vp_z="676.77124 : 338.38501 : 1"
   inkscape:persp3d-origin="338.38562 : 225.59001 : 1"
   id="perspective37556" />
		
		
		
		
		
		
		
	
		
		
		
		
		
		
		
		
		
		
		
		
	
			
			
			
			
			
		
			
			
			
			
			
			
		
			
			
			
			
			
		
			
			
			
			
			
			
			
			
			
			
		<inkscape:perspective
   sodipodi:type="inkscape:persp3d"
   inkscape:vp_x="0 : 338.38501 : 1"
   inkscape:vp_y="0 : 1000 : 0"
   inkscape:vp_z="676.77124 : 338.38501 : 1"
   inkscape:persp3d-origin="338.38562 : 225.59001 : 1"
   id="perspective16301" />
		
		
		
		
		
		
		
	
		
		
		
		
		
		
		
		
		
		
		
		
	
			
			
			
			
			
		
			
			
			
			
			
			
		
			
			
			
			
			
		
			
			
			
			
			
			
			
			
			
			
		
		
		
		
		
		
		
		
	<inkscape:perspective
   sodipodi:type="inkscape:persp3d"
   inkscape:vp_x="0 : 270.7085 : 1"
   inkscape:vp_y="0 : 1000 : 0"
   inkscape:vp_z="541.41699 : 270.7085 : 1"
   inkscape:persp3d-origin="270.7085 : 180.47233 : 1"
   id="perspective12409" /><inkscape:perspective
   sodipodi:type="inkscape:persp3d"
   inkscape:vp_x="0 : 0.5 : 1"
   inkscape:vp_y="0 : 1000 : 0"
   inkscape:vp_z="1 : 0.5 : 1"
   inkscape:persp3d-origin="0.5 : 0.33333333 : 1"
   id="perspective9337" /><inkscape:perspective
   sodipodi:type="inkscape:persp3d"
   inkscape:vp_x="0 : 0.5 : 1"
   inkscape:vp_y="0 : 1000 : 0"
   inkscape:vp_z="1 : 0.5 : 1"
   inkscape:persp3d-origin="0.5 : 0.33333333 : 1"
   id="perspective8562" />
		
		
		
		
		
		
		
	
		
		
		
		
		
		
		
		
		
		
		
		
	
			
			
			
			
			
		
			
			
			
			
			
			
		
			
			
			
			
			
		
			
			
			
			
			
			
			
			
			
			
		<inkscape:perspective
   id="perspective3083"
   inkscape:persp3d-origin="338.38562 : 225.59001 : 1"
   inkscape:vp_z="676.77124 : 338.38501 : 1"
   inkscape:vp_y="0 : 1000 : 0"
   inkscape:vp_x="0 : 338.38501 : 1"
   sodipodi:type="inkscape:persp3d" /><inkscape:perspective
   id="perspective23419"
   inkscape:persp3d-origin="270.7085 : 180.47233 : 1"
   inkscape:vp_z="541.41699 : 270.7085 : 1"
   inkscape:vp_y="0 : 1000 : 0"
   inkscape:vp_x="0 : 270.7085 : 1"
   sodipodi:type="inkscape:persp3d" />
		
		
		
		
		
		
		
	
		
		
		
		
		
		
		
		
		
		
		
		
	
			
			
			
			
			
		
			
			
			
			
			
			
		
			
			
			
			
			
		
			
			
			
			
			
			
			
			
			
			
		<inkscape:perspective
   id="perspective27913"
   inkscape:persp3d-origin="338.38562 : 225.59001 : 1"
   inkscape:vp_z="676.77124 : 338.38501 : 1"
   inkscape:vp_y="0 : 1000 : 0"
   inkscape:vp_x="0 : 338.38501 : 1"
   sodipodi:type="inkscape:persp3d" /><inkscape:perspective
   sodipodi:type="inkscape:persp3d"
   inkscape:vp_x="0 : 338.38501 : 1"
   inkscape:vp_y="0 : 1000 : 0"
   inkscape:vp_z="676.77124 : 338.38501 : 1"
   inkscape:persp3d-origin="338.38562 : 225.59001 : 1"
   id="perspective27913-5" />
		
		
		
		
		
		
		
	
		
		
		
		
		
		
		
		
		
		
		
		
	
			
			
			
			
			
		
			
			
			
			
			
			
		
			
			
			
			
			
		
			
			
			
			
			
			
			
			
			
			
		<inkscape:perspective
   sodipodi:type="inkscape:persp3d"
   inkscape:vp_x="0 : 270.7085 : 1"
   inkscape:vp_y="0 : 1000 : 0"
   inkscape:vp_z="541.41699 : 270.7085 : 1"
   inkscape:persp3d-origin="270.7085 : 180.47233 : 1"
   id="perspective23419-6" /><inkscape:perspective
   sodipodi:type="inkscape:persp3d"
   inkscape:vp_x="0 : 338.38501 : 1"
   inkscape:vp_y="0 : 1000 : 0"
   inkscape:vp_z="676.77124 : 338.38501 : 1"
   inkscape:persp3d-origin="338.38562 : 225.59001 : 1"
   id="perspective3083-3" />
		
		
		
		
		
		
		
	
		
		
		
		
		
		
		
		
		
		
		
		
	
			
			
			
			
			
		
			
			
			
			
			
			
		
			
			
			
			
			
		
			
			
			
			
			
			
			
			
			
			
		<inkscape:perspective
   id="perspective8562-2"
   inkscape:persp3d-origin="0.5 : 0.33333333 : 1"
   inkscape:vp_z="1 : 0.5 : 1"
   inkscape:vp_y="0 : 1000 : 0"
   inkscape:vp_x="0 : 0.5 : 1"
   sodipodi:type="inkscape:persp3d" /><inkscape:perspective
   id="perspective9337-7"
   inkscape:persp3d-origin="0.5 : 0.33333333 : 1"
   inkscape:vp_z="1 : 0.5 : 1"
   inkscape:vp_y="0 : 1000 : 0"
   inkscape:vp_x="0 : 0.5 : 1"
   sodipodi:type="inkscape:persp3d" /><inkscape:perspective
   id="perspective12409-1"
   inkscape:persp3d-origin="270.7085 : 180.47233 : 1"
   inkscape:vp_z="541.41699 : 270.7085 : 1"
   inkscape:vp_y="0 : 1000 : 0"
   inkscape:vp_x="0 : 270.7085 : 1"
   sodipodi:type="inkscape:persp3d" />
		
		
		
		
		
		
		
	
		
		
		
		
		
		
		
		
		
		
		
		
	
			
			
			
			
			
		
			
			
			
			
			
			
		
			
			
			
			
			
		
			
			
			
			
			
			
			
			
			
			
		
		
		
		
		
		
		
		
	<inkscape:perspective
   id="perspective16301-9"
   inkscape:persp3d-origin="338.38562 : 225.59001 : 1"
   inkscape:vp_z="676.77124 : 338.38501 : 1"
   inkscape:vp_y="0 : 1000 : 0"
   inkscape:vp_x="0 : 338.38501 : 1"
   sodipodi:type="inkscape:persp3d" />
		
		
		
		
		
		
		
	
		
		
		
		
		
		
		
		
		
		
		
		
	
			
			
			
			
			
		
			
			
			
			
			
			
		
			
			
			
			
			
		
			
			
			
			
			
			
			
			
			
			
		<inkscape:perspective
   id="perspective37556-9"
   inkscape:persp3d-origin="338.38562 : 225.59001 : 1"
   inkscape:vp_z="676.77124 : 338.38501 : 1"
   inkscape:vp_y="0 : 1000 : 0"
   inkscape:vp_x="0 : 338.38501 : 1"
   sodipodi:type="inkscape:persp3d" /><inkscape:perspective
   id="perspective14783"
   inkscape:persp3d-origin="0.5 : 0.33333333 : 1"
   inkscape:vp_z="1 : 0.5 : 1"
   inkscape:vp_y="0 : 1000 : 0"
   inkscape:vp_x="0 : 0.5 : 1"
   sodipodi:type="inkscape:persp3d" /><inkscape:perspective
   id="perspective15715"
   inkscape:persp3d-origin="0.5 : 0.33333333 : 1"
   inkscape:vp_z="1 : 0.5 : 1"
   inkscape:vp_y="0 : 1000 : 0"
   inkscape:vp_x="0 : 0.5 : 1"
   sodipodi:type="inkscape:persp3d" /><inkscape:perspective
   id="perspective15729"
   inkscape:persp3d-origin="0.5 : 0.33333333 : 1"
   inkscape:vp_z="1 : 0.5 : 1"
   inkscape:vp_y="0 : 1000 : 0"
   inkscape:vp_x="0 : 0.5 : 1"
   sodipodi:type="inkscape:persp3d" /><inkscape:perspective
   id="perspective16661"
   inkscape:persp3d-origin="0.5 : 0.33333333 : 1"
   inkscape:vp_z="1 : 0.5 : 1"
   inkscape:vp_y="0 : 1000 : 0"
   inkscape:vp_x="0 : 0.5 : 1"
   sodipodi:type="inkscape:persp3d" /><inkscape:perspective
   id="perspective20357"
   inkscape:persp3d-origin="270.70999 : 180.47333 : 1"
   inkscape:vp_z="541.41998 : 270.70999 : 1"
   inkscape:vp_y="0 : 1000 : 0"
   inkscape:vp_x="0 : 270.70999 : 1"
   sodipodi:type="inkscape:persp3d" /><inkscape:perspective
   id="perspective25753"
   inkscape:persp3d-origin="270.70999 : 180.47333 : 1"
   inkscape:vp_z="541.41998 : 270.70999 : 1"
   inkscape:vp_y="0 : 1000 : 0"
   inkscape:vp_x="0 : 270.70999 : 1"
   sodipodi:type="inkscape:persp3d" /><inkscape:perspective
   id="perspective58400"
   inkscape:persp3d-origin="270.70999 : 180.47333 : 1"
   inkscape:vp_z="541.41998 : 270.70999 : 1"
   inkscape:vp_y="0 : 1000 : 0"
   inkscape:vp_x="0 : 270.70999 : 1"
   sodipodi:type="inkscape:persp3d" />
	
	

		
		
		
		
		
		
		
		
		
		
		
		
		
		
		
		
		
		
		
		
		
		
		
		
		
		
		
		
		
		
		
		
		
		
		
		
		
		
		
		
		
		
		
		
		
		
		
		
		
		
		
		
		
		
		
		
		
		
		
		
		
		
		
		
		
		
		
		
	</defs><sodipodi:namedview
   inkscape:window-height="1383"
   inkscape:window-width="2560"
   inkscape:pageshadow="2"
   inkscape:pageopacity="0.0"
   guidetolerance="10.0"
   gridtolerance="10.0"
   objecttolerance="10.0"
   borderopacity="1.0"
   bordercolor="#666666"
   pagecolor="#ffffff"
   id="base"
   inkscape:zoom="1.979899"
   inkscape:cx="378.56989"
   inkscape:cy="315.51971"
   inkscape:window-x="0"
   inkscape:window-y="0"
   inkscape:current-layer="layer1"
   showgrid="false"
   inkscape:window-maximized="1"
   inkscape:document-units="mm"
   units="mm" />
	<g
   inkscape:groupmode="layer"
   id="layer1"
   inkscape:label="Layer 1"><g
     transform="matrix(2.8346457,0,0,2.8346457,8.922047,-309.39578)"
     style="display:inline;fill:none;stroke:#0000ff;stroke-width:0.1;stroke-miterlimit:4;stroke-dasharray:none;stroke-opacity:1"
     id="g18007"><path
       id="path17997"
       d="m 5.0525,205.94749 h 84 c 1.108,0 2,0.892 2,2 v 84 c 0,1.108 -0.892,2 -2,2 h -84 c -1.108,0 -2,-0.892 -2,-2 v -84 c 0,-1.108 0.892,-2 2,-2 z"
       style="fill:none;stroke:#0000ff;stroke-width:0.1;stroke-miterlimit:4;stroke-dasharray:none;stroke-opacity:1"
       inkscape:connector-curvature="0" /><path
       id="path17999"
       d="m 7.0524998,290.94751 a 1,1 0 0 1 -1,1 1,1 0 0 1 -1,-1 1,1 0 0 1 1,-1 1,1 0 0 1 1,1 z"
       style="fill:none;stroke:#0000ff;stroke-width:0.1;stroke-miterlimit:4;stroke-dasharray:none;stroke-opacity:1"
       inkscape:connector-curvature="0" /><path
       id="path18001"
       d="m 7.0524998,208.94749 a 1,1 0 0 1 -1,1 1,1 0 0 1 -1,-1 1,1 0 0 1 1,-1 1,1 0 0 1 1,1 z"
       style="fill:none;stroke:#0000ff;stroke-width:0.1;stroke-miterlimit:4;stroke-dasharray:none;stroke-opacity:1"
       inkscape:connector-curvature="0" /><path
       id="path18003"
       d="m 89.052498,208.94749 a 1,1 0 0 1 -1,1 1,1 0 0 1 -1,-1 1,1 0 0 1 1,-1 1,1 0 0 1 1,1 z"
       style="fill:none;stroke:#0000ff;stroke-width:0.1;stroke-miterlimit:4;stroke-dasharray:none;stroke-opacity:1"
       inkscape:connector-curvature="0" /><path
       id="path18005"
       d="m 89.052498,290.94751 a 1,1 0 0 1 -1,1 1,1 0 0 1 -1,-1 1,1 0 0 1 1,-1 1,1 0 0 1 1,1 z"
       style="fill:none;stroke:#0000ff;stroke-width:0.1;stroke-miterlimit:4;stroke-dasharray:none;stroke-opacity:1"
       inkscape:connector-curvature="0" /></g><g
     id="g20261"
     style="display:inline;fill:none;stroke:#0000ff;stroke-width:0.1;stroke-miterlimit:4;stroke-dasharray:none;stroke-opacity:1"
     transform="matrix(2.8346457,0,0,2.8346457,263.4874,-308.84302)"><path
       inkscape:connector-curvature="0"
       style="fill:none;stroke:#0000ff;stroke-width:0.1;stroke-miterlimit:4;stroke-dasharray:none;stroke-opacity:1"
       d="m 5.0525,205.94749 h 84 c 1.108,0 2,0.892 2,2 v 84 c 0,1.108 -0.892,2 -2,2 h -84 c -1.108,0 -2,-0.892 -2,-2 v -84 c 0,-1.108 0.892,-2 2,-2 z"
       id="path20251" /><path
       inkscape:connector-curvature="0"
       style="fill:none;stroke:#0000ff;stroke-width:0.1;stroke-miterlimit:4;stroke-dasharray:none;stroke-opacity:1"
       d="m 7.0524998,290.94751 a 1,1 0 0 1 -1,1 1,1 0 0 1 -1,-1 1,1 0 0 1 1,-1 1,1 0 0 1 1,1 z"
       id="path20253" /><path
       inkscape:connector-curvature="0"
       style="fill:none;stroke:#0000ff;stroke-width:0.1;stroke-miterlimit:4;stroke-dasharray:none;stroke-opacity:1"
       d="m 7.0524998,208.94749 a 1,1 0 0 1 -1,1 1,1 0 0 1 -1,-1 1,1 0 0 1 1,-1 1,1 0 0 1 1,1 z"
       id="path20255" /><path
       inkscape:connector-curvature="0"
       style="fill:none;stroke:#0000ff;stroke-width:0.1;stroke-miterlimit:4;stroke-dasharray:none;stroke-opacity:1"
       d="m 89.052498,208.94749 a 1,1 0 0 1 -1,1 1,1 0 0 1 -1,-1 1,1 0 0 1 1,-1 1,1 0 0 1 1,1 z"
       id="path20257" /><path
       inkscape:connector-curvature="0"
       style="fill:none;stroke:#0000ff;stroke-width:0.1;stroke-miterlimit:4;stroke-dasharray:none;stroke-opacity:1"
       d="m 89.052498,290.94751 a 1,1 0 0 1 -1,1 1,1 0 0 1 -1,-1 1,1 0 0 1 1,-1 1,1 0 0 1 1,1 z"
       id="path20259" /></g><g
     id="g20816"
     style="display:inline;fill:none;stroke:#0000ff;stroke-width:0.1;stroke-miterlimit:4;stroke-dasharray:none;stroke-opacity:1"
     transform="matrix(2.8346457,0,0,2.8346457,8.9220471,-564.51389)"><path
       inkscape:connector-curvature="0"
       style="fill:none;stroke:#0000ff;stroke-width:0.1;stroke-miterlimit:4;stroke-dasharray:none;stroke-opacity:1"
       d="m 5.0525,205.94749 h 84 c 1.108,0 2,0.892 2,2 v 84 c 0,1.108 -0.892,2 -2,2 h -84 c -1.108,0 -2,-0.892 -2,-2 v -84 c 0,-1.108 0.892,-2 2,-2 z"
       id="path20806" /><path
       inkscape:connector-curvature="0"
       style="fill:none;stroke:#0000ff;stroke-width:0.1;stroke-miterlimit:4;stroke-dasharray:none;stroke-opacity:1"
       d="m 7.0524998,290.94751 a 1,1 0 0 1 -1,1 1,1 0 0 1 -1,-1 1,1 0 0 1 1,-1 1,1 0 0 1 1,1 z"
       id="path20808" /><path
       inkscape:connector-curvature="0"
       style="fill:none;stroke:#0000ff;stroke-width:0.1;stroke-miterlimit:4;stroke-dasharray:none;stroke-opacity:1"
       d="m 7.0524998,208.94749 a 1,1 0 0 1 -1,1 1,1 0 0 1 -1,-1 1,1 0 0 1 1,-1 1,1 0 0 1 1,1 z"
       id="path20810" /><path
       inkscape:connector-curvature="0"
       style="fill:none;stroke:#0000ff;stroke-width:0.1;stroke-miterlimit:4;stroke-dasharray:none;stroke-opacity:1"
       d="m 89.052498,208.94749 a 1,1 0 0 1 -1,1 1,1 0 0 1 -1,-1 1,1 0 0 1 1,-1 1,1 0 0 1 1,1 z"
       id="path20812" /><path
       inkscape:connector-curvature="0"
       style="fill:none;stroke:#0000ff;stroke-width:0.1;stroke-miterlimit:4;stroke-dasharray:none;stroke-opacity:1"
       d="m 89.052498,290.94751 a 1,1 0 0 1 -1,1 1,1 0 0 1 -1,-1 1,1 0 0 1 1,-1 1,1 0 0 1 1,1 z"
       id="path20814" /></g><g
     transform="matrix(2.8346457,0,0,2.8346457,263.4874,-563.96113)"
     style="display:inline;fill:none;stroke:#0000ff;stroke-width:0.1;stroke-miterlimit:4;stroke-dasharray:none;stroke-opacity:1"
     id="g20828"><path
       id="path20818"
       d="m 5.0525,205.94749 h 84 c 1.108,0 2,0.892 2,2 v 84 c 0,1.108 -0.892,2 -2,2 h -84 c -1.108,0 -2,-0.892 -2,-2 v -84 c 0,-1.108 0.892,-2 2,-2 z"
       style="fill:none;stroke:#0000ff;stroke-width:0.1;stroke-miterlimit:4;stroke-dasharray:none;stroke-opacity:1"
       inkscape:connector-curvature="0" /><path
       id="path20820"
       d="m 7.0524998,290.94751 a 1,1 0 0 1 -1,1 1,1 0 0 1 -1,-1 1,1 0 0 1 1,-1 1,1 0 0 1 1,1 z"
       style="fill:none;stroke:#0000ff;stroke-width:0.1;stroke-miterlimit:4;stroke-dasharray:none;stroke-opacity:1"
       inkscape:connector-curvature="0" /><path
       id="path20822"
       d="m 7.0524998,208.94749 a 1,1 0 0 1 -1,1 1,1 0 0 1 -1,-1 1,1 0 0 1 1,-1 1,1 0 0 1 1,1 z"
       style="fill:none;stroke:#0000ff;stroke-width:0.1;stroke-miterlimit:4;stroke-dasharray:none;stroke-opacity:1"
       inkscape:connector-curvature="0" /><path
       id="path20824"
       d="m 89.052498,208.94749 a 1,1 0 0 1 -1,1 1,1 0 0 1 -1,-1 1,1 0 0 1 1,-1 1,1 0 0 1 1,1 z"
       style="fill:none;stroke:#0000ff;stroke-width:0.1;stroke-miterlimit:4;stroke-dasharray:none;stroke-opacity:1"
       inkscape:connector-curvature="0" /><path
       id="path20826"
       d="m 89.052498,290.94751 a 1,1 0 0 1 -1,1 1,1 0 0 1 -1,-1 1,1 0 0 1 1,-1 1,1 0 0 1 1,1 z"
       style="fill:none;stroke:#0000ff;stroke-width:0.1;stroke-miterlimit:4;stroke-dasharray:none;stroke-opacity:1"
       inkscape:connector-curvature="0" /></g></g>
</svg>